<?xml version="1.0" standalone="no"?>
<!DOCTYPE svg PUBLIC "-//W3C//DTD SVG 20010904//EN"
 "http://www.w3.org/TR/2001/REC-SVG-20010904/DTD/svg10.dtd">
<svg version="1.0" xmlns="http://www.w3.org/2000/svg"
 width="512.000000pt" height="512.000000pt" viewBox="0 0 512.000000 512.000000"
 preserveAspectRatio="xMidYMid meet">
<metadata>
Created by potrace 1.14, written by Peter Selinger 2001-2017
</metadata>
<g transform="translate(0.000000,512.000000) scale(0.100000,-0.100000)"
fill="#000000" stroke="none">
<path d="M194 4829 c-51 -25 -144 -119 -172 -176 l-22 -42 1 -1838 c0 -1507 2
-1845 13 -1876 31 -85 117 -159 202 -172 25 -3 53 -8 62 -10 10 -1 46 -6 82
-10 36 -4 73 -9 82 -10 9 -2 43 -6 75 -10 32 -3 69 -8 83 -10 14 -2 50 -6 80
-10 30 -4 66 -8 80 -10 14 -2 50 -7 80 -10 110 -13 186 -23 230 -29 19 -3 56
-8 82 -11 26 -3 62 -7 80 -9 18 -3 56 -8 83 -11 28 -3 61 -7 75 -10 26 -4 123
-16 175 -20 17 -2 48 -6 70 -9 60 -9 179 -23 255 -31 25 -3 56 -7 70 -10 14
-2 48 -7 75 -10 61 -7 122 -15 155 -20 14 -2 50 -6 81 -10 31 -3 66 -7 77 -10
12 -2 47 -6 79 -10 32 -3 72 -8 88 -10 31 -6 61 -9 160 -20 33 -4 71 -8 85
-11 14 -2 101 -13 195 -24 93 -12 183 -23 200 -25 16 -3 89 -12 160 -20 72 -9
141 -18 155 -20 14 -2 48 -6 75 -9 28 -4 86 -11 130 -17 155 -20 202 -21 239
-9 46 15 134 95 179 163 20 29 126 162 237 297 111 135 217 263 235 285 18 22
100 121 182 220 391 474 390 472 366 496 -6 6 -35 12 -65 14 -68 4 -301 16
-398 20 -96 4 -373 18 -425 20 -22 1 -54 3 -70 4 l-30 1 -1 1173 c0 644 -4
1189 -7 1210 -13 69 -71 154 -126 181 -28 14 -102 32 -166 41 -76 9 -120 15
-173 21 -29 3 -61 7 -70 9 -9 1 -46 6 -82 10 -36 4 -73 9 -83 11 -10 2 -48 6
-85 9 -37 3 -74 8 -82 10 -8 2 -40 7 -70 10 -30 3 -66 8 -80 10 -14 2 -50 7
-80 10 -30 3 -81 10 -114 15 -32 5 -61 9 -65 8 -5 -2 -57 5 -141 17 -14 2 -50
7 -80 10 -30 4 -68 8 -85 10 -16 3 -50 7 -74 9 -54 7 -196 26 -231 31 -14 2
-52 7 -85 10 -33 3 -71 7 -85 10 -14 2 -50 7 -80 10 -30 3 -66 8 -80 10 -31 5
-48 8 -350 45 -135 16 -265 32 -290 35 -25 3 -76 10 -115 15 -38 5 -92 12
-120 15 -27 3 -66 8 -85 10 -19 3 -51 7 -70 10 -19 2 -91 12 -160 20 -69 9
-141 18 -160 20 -19 2 -57 7 -85 11 -27 3 -79 10 -115 15 -91 12 -109 11 -156
-12z"/>
</g>
</svg>
